<?xml version="1.0" standalone="no"?>
<!DOCTYPE svg PUBLIC "-//W3C//DTD SVG 20010904//EN"
 "http://www.w3.org/TR/2001/REC-SVG-20010904/DTD/svg10.dtd">
<svg version="1.0" xmlns="http://www.w3.org/2000/svg"
 width="260.000000pt" height="260.000000pt" viewBox="0 0 260.000000 260.000000"
 preserveAspectRatio="xMidYMid meet">
<metadata>
Created by potrace 1.11, written by Peter Selinger 2001-2013
</metadata>
<g transform="translate(0.000000,260.000000) scale(0.100000,-0.100000)"
fill="#000000" stroke="none">
<path d="M1120 2485 c0 -12 -13 -15 -55 -15 -42 0 -55 -3 -55 -15 0 -9 -9 -15
-25 -15 -14 0 -25 -4 -25 -10 0 -5 -11 -10 -25 -10 -16 0 -25 -6 -25 -15 0 -9
-9 -15 -25 -15 -14 0 -25 -4 -25 -10 0 -5 -7 -10 -15 -10 -8 0 -15 -7 -15 -15
0 -9 -9 -15 -25 -15 -16 0 -25 -6 -25 -15 0 -8 -5 -15 -11 -15 -14 0 -39 -25
-39 -39 0 -6 -5 -11 -11 -11 -14 0 -39 -25 -39 -39 0 -6 -7 -11 -15 -11 -8 0
-15 -7 -15 -15 0 -8 -7 -15 -15 -15 -9 0 -15 -9 -15 -21 0 -22 -22 -49 -39
-49 -6 0 -11 -13 -11 -30 0 -16 -4 -30 -10 -30 -5 0 -10 -11 -10 -25 0 -16 -6
-25 -15 -25 -11 0 -15 -11 -15 -40 0 -29 -4 -40 -15 -40 -10 0 -15 -11 -15
-35 0 -19 -4 -35 -10 -35 -6 0 -10 -82 -10 -225 0 -143 4 -225 10 -225 6 0 10
-16 10 -35 0 -24 5 -35 15 -35 11 0 15 -11 15 -40 0 -29 4 -40 15 -40 9 0 15
-9 15 -25 0 -14 5 -25 10 -25 6 0 10 -13 10 -30 0 -16 5 -30 11 -30 17 0 39
-27 39 -49 0 -12 6 -21 15 -21 8 0 15 -7 15 -15 0 -8 7 -15 15 -15 8 0 15 -5
15 -11 0 -14 25 -39 39 -39 6 0 11 -11 11 -25 0 -14 5 -25 10 -25 6 0 10 -7
10 -15 0 -8 7 -15 15 -15 8 0 15 -7 15 -15 0 -8 7 -15 15 -15 9 0 15 -9 15
-21 0 -22 22 -49 39 -49 6 0 11 -7 11 -15 0 -8 5 -15 10 -15 6 0 10 -11 10
-25 0 -16 6 -25 15 -25 8 0 15 -7 15 -15 0 -8 5 -15 11 -15 14 0 39 -25 39
-39 0 -6 7 -11 15 -11 9 0 15 -9 15 -25 0 -14 5 -25 10 -25 6 0 10 -7 10 -15
0 -8 7 -15 15 -15 8 0 15 -4 15 -10 0 -5 7 -10 15 -10 9 0 15 -10 15 -26 0
-26 20 -54 39 -54 6 0 11 -7 11 -15 0 -8 5 -15 10 -15 6 0 10 -11 10 -25 0
-16 6 -25 15 -25 8 0 15 -7 15 -15 0 -8 5 -15 11 -15 17 0 39 -27 39 -49 0
-12 6 -21 15 -21 8 0 15 -7 15 -15 0 -8 5 -15 10 -15 6 0 10 -7 10 -15 0 -12
13 -15 55 -15 42 0 55 3 55 15 0 8 5 15 10 15 6 0 10 7 10 15 0 8 7 15 15 15
9 0 15 9 15 25 0 14 5 25 11 25 14 0 39 25 39 39 0 6 7 11 15 11 9 0 15 9 15
25 0 14 5 25 10 25 6 0 10 7 10 15 0 8 7 15 15 15 8 0 15 5 15 10 0 6 7 10 15
10 8 0 15 7 15 15 0 8 5 15 10 15 6 0 10 11 10 25 0 16 6 25 15 25 8 0 15 5
15 11 0 14 25 39 39 39 6 0 11 14 11 30 0 17 5 30 11 30 14 0 39 25 39 39 0 6
5 11 11 11 19 0 39 28 39 54 0 16 6 26 15 26 8 0 15 5 15 10 0 6 7 10 15 10 8
0 15 7 15 15 0 8 5 15 10 15 6 0 10 11 10 25 0 16 6 25 15 25 8 0 15 5 15 11
0 14 25 39 39 39 6 0 11 7 11 15 0 8 7 15 15 15 9 0 15 9 15 25 0 14 5 25 10
25 6 0 10 7 10 15 0 8 5 15 11 15 17 0 39 27 39 49 0 12 6 21 15 21 8 0 15 7
15 15 0 8 7 15 15 15 11 0 15 11 15 40 0 22 5 40 10 40 6 0 10 18 10 40 0 29
4 40 15 40 10 0 15 11 15 35 0 19 5 35 10 35 6 0 10 82 10 225 0 143 -4 225
-10 225 -5 0 -10 16 -10 35 0 24 -5 35 -15 35 -11 0 -15 11 -15 40 0 22 -4 40
-10 40 -5 0 -10 11 -10 25 0 16 -6 25 -15 25 -10 0 -15 10 -15 30 0 17 -5 30
-11 30 -17 0 -39 27 -39 49 0 12 -6 21 -15 21 -8 0 -15 7 -15 15 0 8 -4 15
-10 15 -5 0 -10 7 -10 15 0 8 -7 15 -15 15 -8 0 -15 5 -15 10 0 6 -7 10 -15
10 -8 0 -15 5 -15 11 0 14 -25 39 -39 39 -6 0 -11 7 -11 15 0 9 -9 15 -25 15
-16 0 -25 6 -25 15 0 8 -7 15 -15 15 -8 0 -15 5 -15 10 0 6 -11 10 -25 10 -16
0 -25 6 -25 15 0 9 -9 15 -25 15 -14 0 -25 5 -25 10 0 6 -11 10 -25 10 -16 0
-25 6 -25 15 0 12 -13 15 -55 15 -42 0 -55 3 -55 15 0 13 -29 15 -205 15 -176
0 -205 -2 -205 -15z m360 -445 c0 -5 11 -10 25 -10 16 0 25 -6 25 -15 0 -9 10
-15 26 -15 26 0 54 -20 54 -39 0 -6 7 -11 15 -11 8 0 15 -5 15 -11 0 -14 25
-39 39 -39 6 0 11 -11 11 -25 0 -16 6 -25 15 -25 10 0 15 -10 15 -30 0 -16 5
-30 10 -30 6 0 10 -50 10 -130 0 -80 -4 -130 -10 -130 -5 0 -10 -11 -10 -25 0
-16 -6 -25 -15 -25 -9 0 -15 -9 -15 -25 0 -16 -6 -25 -15 -25 -8 0 -15 -5 -15
-11 0 -6 -6 -17 -14 -25 -8 -8 -19 -14 -25 -14 -6 0 -11 -5 -11 -11 0 -19 -28
-39 -54 -39 -16 0 -26 -6 -26 -15 0 -9 -9 -15 -25 -15 -16 0 -25 -6 -25 -15 0
-13 -22 -15 -140 -15 -118 0 -140 2 -140 15 0 10 -10 15 -30 15 -20 0 -30 5
-30 15 0 9 -9 15 -21 15 -22 0 -49 22 -49 39 0 6 -7 11 -15 11 -8 0 -15 5 -15
10 0 6 -7 10 -15 10 -8 0 -15 7 -15 15 0 8 -4 15 -10 15 -5 0 -10 11 -10 25 0
16 -6 25 -15 25 -9 0 -15 9 -15 25 0 14 -4 25 -10 25 -6 0 -10 50 -10 130 0
80 4 130 10 130 6 0 10 14 10 30 0 20 5 30 15 30 9 0 15 9 15 21 0 22 22 49
39 49 6 0 11 7 11 15 0 8 7 15 15 15 8 0 15 5 15 11 0 17 27 39 49 39 12 0 21
6 21 15 0 10 10 15 30 15 17 0 30 5 30 10 0 6 53 10 140 10 87 0 140 -4 140
-10z"/>
</g>
</svg>
